<?xml version="1.0" encoding="utf-8"?>
<!-- Generator: Adobe Illustrator 22.1.0, SVG Export Plug-In . SVG Version: 6.00 Build 0)  -->
<svg version="1.1" id="Capa_1" xmlns="http://www.w3.org/2000/svg" xmlns:xlink="http://www.w3.org/1999/xlink" x="0px" y="0px"
	 viewBox="0 0 33 43.9" style="enable-background:new 0 0 33 43.9;" xml:space="preserve">
<style type="text/css">
	.st0{fill:#FFDD67;}
	.st1{fill:#EBA352;}
	#arrow{
	animation: anim_tup 1.5s ease-out infinite;
	 transform-origin: center center;
	width:40px;
}
@keyframes anim_tup{
0% {transform: translateY(-12px);}
50% {transform: translateY(0);}
100% {transform: translateY(-12px);}
}
</style>
<g id="arrow">
	<path class="st0" d="M26.5,29.2c-2.3-0.2-3-2.1-3.3-2.9l-0.1-0.4c0,0-0.3-0.3-0.6-0.8l-0.1,0c0,0-0.3,4-0.1,5.3
		c0.2,1.4,0.1,7.8,0.2,9.4c0.1,1.9-0.3,3.2-2.3,3.2c-2.1,0-2.7-1.6-2.6-3.2c0.2-2.2,0.4-9.4,0.4-9.4c-0.2,0.9-0.6,1.8-2.2,1.6
		c-1.8-0.2-2.1-0.9-2.2-2c-0.9,1.5-2.1,1.4-2.8,1.2c-1.2-0.3-1.6-2.5-1.6-2.5C8.8,30.2,8,29.9,7,29.7c-0.8-0.1-1.5-0.8-1.8-1.9
		s-1.1-2,0.3-10.8c0.3-2.3,2.4-3.5,5.4-4c2.1-0.4,4.9-0.9,7-1l0.6,0c1.2-0.1,2.3,0.4,3.1,1.4l4.4,6.3c0.3,0.3,0.5,0.7,0.6,1.2
		c0.2,1.6,0.6,3.6,1.5,5.9C28.6,27.8,28,29.4,26.5,29.2z"/>
	<path class="st1" d="M7.6,29.8c2,0.3,1.8-2.7,1.4-1.4C8.6,29.7,7.6,29.8,7.6,29.8z"/>
	<path class="st1" d="M11.3,31.1c2.7,0.3,2.4-2.7,1.9-1.5C12.7,30.9,11.3,31.1,11.3,31.1z"/>
	<path class="st1" d="M15.8,31.9c2.7,0.3,2.4-2.9,1.9-1.7C17.2,31.5,15.8,31.9,15.8,31.9z"/>
	<path class="st1" d="M22.3,24.9c0,0,0.7,6.5,0.3,14.7c-0.1,1.2-0.1,3-2.2,3.1C22.8,42.1,21.7,33.9,22.3,24.9z"/>
	<path class="st1" d="M27.8,28.7c0.1-0.4,0.1-0.8-0.1-1c-1.1-2.3-1.4-4.3-1.5-5.9c-0.1-0.5-0.3-0.9-0.6-1.2L21,14.2
		c-0.7-1-1.9-1.5-3.1-1.4l-0.6,0c-2.1,0.2-4.9,0.7-7,1c-2.1,0.3-3.8,1-4.6,2.2c0.7-1.8,2.6-2.6,5.2-3.1c2.1-0.4,4.9-0.9,7-1l0.6,0
		c1.2-0.1,2.3,0.4,3.1,1.4l4.4,6.4c0.3,0.3,0.5,0.7,0.6,1.2c0.2,1.6,0.6,3.6,1.5,5.9C28.5,27.4,28.4,28.2,27.8,28.7z"/>
	<path class="st1" d="M22.9,22.8c0,0,0.7,2.2,0.9,3.2c0.2,0.9,1,2.5,2.4,3.1c-2.2-0.3-2.9-2.1-3.1-2.9L23,25.8c0,0-0.4-0.3-0.7-0.8
		C22.3,24.9,23,23.9,22.9,22.8z"/>
	<path class="st1" d="M17.6,29.7c-0.1-0.3-0.3-0.5-0.4-0.8c-0.2-0.3-0.3-0.5-0.5-0.8c-0.2-0.3-0.3-0.6-0.3-0.9
		c0-0.3,0.1-0.7,0.3-0.9c0,0.3,0.1,0.6,0.2,0.9s0.2,0.5,0.3,0.8c0.1,0.3,0.3,0.5,0.4,0.8C17.7,29,17.7,29.4,17.6,29.7z"/>
	<path class="st1" d="M13.6,28.7c-0.1-0.3-0.3-0.5-0.4-0.8c-0.1-0.3-0.3-0.5-0.5-0.8c-0.2-0.3-0.3-0.6-0.3-0.9
		c0-0.3,0.1-0.7,0.3-0.9c0,0.3,0.1,0.6,0.2,0.9c0.1,0.3,0.2,0.5,0.3,0.8s0.3,0.5,0.4,0.8C13.6,28.1,13.7,28.4,13.6,28.7z"/>
	<path class="st1" d="M9.2,27.5c-0.1-0.3-0.3-0.5-0.4-0.8c-0.2-0.3-0.3-0.5-0.5-0.8C8.1,25.7,8,25.3,8,25c0-0.3,0.1-0.7,0.3-0.9
		c0,0.3,0.1,0.6,0.2,0.9c0.1,0.3,0.2,0.5,0.3,0.8c0.1,0.3,0.3,0.5,0.4,0.8C9.2,26.8,9.3,27.2,9.2,27.5z"/>
</g>
</svg>
